<?xml version="1.0" standalone="no"?>
<!DOCTYPE svg PUBLIC "-//W3C//DTD SVG 20010904//EN"
 "http://www.w3.org/TR/2001/REC-SVG-20010904/DTD/svg10.dtd">
<svg version="1.0" xmlns="http://www.w3.org/2000/svg"
 width="400.000000pt" height="400.000000pt" viewBox="0 0 400.000000 400.000000"
 preserveAspectRatio="xMidYMid meet">
<metadata>
Created by potrace 1.11, written by Peter Selinger 2001-2013
</metadata>
<g transform="translate(0.000000,400.000000) scale(0.100000,-0.100000)"
fill="#000000" stroke="none">
<path d="M1642 3993 c1 -5 -2 -30 -6 -58 -5 -27 -10 -63 -11 -80 -2 -16 -6
-46 -10 -65 -14 -82 -24 -147 -29 -180 -3 -19 -8 -53 -11 -75 -3 -22 -10 -62
-15 -90 -5 -27 -12 -72 -15 -100 -3 -27 -8 -57 -10 -65 -5 -16 -13 -63 -19
-120 -3 -19 -10 -66 -16 -105 -6 -38 -13 -81 -15 -95 -5 -32 -15 -97 -21 -130
-4 -26 -15 -99 -20 -135 -1 -11 -3 -22 -4 -25 -1 -3 -2 -8 -1 -12 0 -4 -3 -29
-8 -55 -10 -53 -22 -124 -26 -163 -4 -34 -14 -95 -25 -155 -5 -27 -12 -75 -16
-105 -3 -30 -7 -57 -9 -60 -2 -3 -6 -30 -10 -60 -4 -30 -12 -85 -19 -122 l-13
-68 66 -1 c84 0 1185 0 1229 1 l34 0 -7 48 c-3 26 -12 85 -20 132 -8 47 -16
103 -19 125 -2 22 -5 40 -6 40 -1 0 -3 9 -4 20 -2 11 -9 56 -15 100 -7 44 -15
96 -17 115 -3 19 -7 46 -9 60 -3 14 -7 41 -10 60 -3 19 -7 49 -10 65 -2 17 -9
59 -15 95 -6 36 -12 81 -15 100 -4 30 -11 68 -20 115 -1 6 -6 35 -10 65 -4 30
-8 62 -10 70 -2 8 -6 35 -10 60 -5 39 -24 159 -39 255 -2 17 -9 59 -14 95 -6
36 -13 82 -16 103 -9 57 -17 107 -22 131 -2 11 -7 41 -10 66 -3 24 -8 54 -9
65 -3 22 -15 91 -20 115 -2 8 -4 18 -4 23 -1 4 -152 7 -336 7 -184 0 -334 -3
-333 -7z"/>
<path d="M741 2581 l-31 -29 0 -325 0 -326 24 -28 24 -28 146 0 c138 0 147 1
168 23 l23 23 0 332 c0 358 2 347 -52 375 -12 7 -72 11 -146 11 -124 0 -126 0
-156 -28z"/>
<path d="M2953 2598 c-45 -22 -48 -44 -47 -386 1 -349 -1 -339 59 -362 34 -13
234 -13 271 0 55 19 56 24 56 379 0 228 -3 326 -11 329 -6 2 -11 9 -11 16 0 7
-11 18 -24 24 -30 13 -263 13 -293 0z"/>
<path d="M1038 1663 c-58 -24 -73 -55 -76 -166 -2 -54 -1 -113 2 -130 7 -35
40 -79 71 -92 11 -5 209 -9 440 -10 l420 -2 0 -212 0 -212 -49 -27 c-28 -15
-55 -30 -60 -35 -45 -32 -85 -54 -90 -49 -3 3 -6 0 -6 -6 0 -6 -10 -14 -22
-18 -12 -3 -26 -11 -32 -16 -6 -5 -94 -58 -195 -118 -158 -93 -187 -107 -208
-99 -39 15 -83 11 -129 -12 -108 -52 -109 -220 -3 -275 41 -20 121 -20 156 1
35 20 70 70 77 108 4 25 27 57 41 57 3 0 116 65 250 145 134 80 251 148 260
151 13 5 15 -16 15 -168 l0 -174 -28 -24 c-39 -35 -56 -81 -49 -135 8 -55 29
-88 72 -115 83 -51 196 -15 231 75 25 66 5 141 -48 185 -18 14 -20 32 -21 188
-1 94 2 172 6 172 7 0 121 -65 222 -127 11 -7 29 -17 40 -23 11 -6 29 -16 40
-23 11 -7 73 -43 138 -82 115 -68 122 -75 120 -123 -1 -21 72 -92 104 -101
111 -32 207 37 207 150 1 116 -86 176 -214 147 -17 -3 -37 3 -60 18 -19 13
-40 24 -47 24 -7 0 -13 3 -13 8 0 4 -21 18 -47 32 -27 13 -50 27 -53 31 -3 3
-28 19 -57 35 -43 24 -172 101 -235 139 -9 5 -46 27 -82 48 -62 36 -66 40 -66
75 0 20 -1 113 -1 207 l-1 170 28 5 c16 3 202 5 414 4 220 0 397 3 415 9 16 5
41 23 55 40 24 30 25 38 25 157 0 136 -9 163 -65 191 -38 20 -1844 21 -1892 2z"/>
</g>
</svg>
